<mxfile host="app.diagrams.net" modified="2022-12-19T12:52:45.444Z" agent="5.0 (Windows NT 10.0; Win64; x64) AppleWebKit/537.36 (KHTML, like Gecko) Chrome/107.0.0.0 Safari/537.36" etag="Iky7qXquKrctllbsGR6f" version="20.6.2" type="github">
  <diagram id="FJhfV4lvIjfhrtjuW59-" name="第 1 页">
    <mxGraphModel dx="1422" dy="762" grid="1" gridSize="10" guides="1" tooltips="1" connect="1" arrows="1" fold="1" page="1" pageScale="1" pageWidth="827" pageHeight="1169" math="0" shadow="0">
      <root>
        <mxCell id="0" />
        <mxCell id="1" parent="0" />
        <mxCell id="OlpMwRyN-Im674d7ufbM-37" value="" style="rounded=1;whiteSpace=wrap;html=1;fontSize=14;dashed=1;" parent="1" vertex="1">
          <mxGeometry x="60" y="570" width="710" height="110" as="geometry" />
        </mxCell>
        <mxCell id="OlpMwRyN-Im674d7ufbM-16" value="" style="rounded=1;whiteSpace=wrap;html=1;fontSize=14;dashed=1;" parent="1" vertex="1">
          <mxGeometry x="295" y="200" width="240" height="330" as="geometry" />
        </mxCell>
        <mxCell id="OlpMwRyN-Im674d7ufbM-1" value="&lt;font style=&quot;font-size: 18px;&quot;&gt;Parser&lt;/font&gt;" style="rounded=1;whiteSpace=wrap;html=1;" parent="1" vertex="1">
          <mxGeometry x="325" y="210" width="180" height="40" as="geometry" />
        </mxCell>
        <mxCell id="OlpMwRyN-Im674d7ufbM-2" value="&lt;font style=&quot;font-size: 18px;&quot;&gt;Logical Optimizer&lt;/font&gt;" style="rounded=1;whiteSpace=wrap;html=1;" parent="1" vertex="1">
          <mxGeometry x="325" y="288" width="180" height="40" as="geometry" />
        </mxCell>
        <mxCell id="OlpMwRyN-Im674d7ufbM-3" value="&lt;font style=&quot;font-size: 18px;&quot;&gt;Physical Optimizer&lt;/font&gt;" style="rounded=1;whiteSpace=wrap;html=1;" parent="1" vertex="1">
          <mxGeometry x="325" y="365" width="180" height="40" as="geometry" />
        </mxCell>
        <mxCell id="OlpMwRyN-Im674d7ufbM-4" value="" style="endArrow=classic;html=1;rounded=0;fontSize=18;exitX=0.5;exitY=1;exitDx=0;exitDy=0;" parent="1" source="OlpMwRyN-Im674d7ufbM-1" target="OlpMwRyN-Im674d7ufbM-2" edge="1">
          <mxGeometry width="50" height="50" relative="1" as="geometry">
            <mxPoint x="555" y="340" as="sourcePoint" />
            <mxPoint x="605" y="290" as="targetPoint" />
          </mxGeometry>
        </mxCell>
        <mxCell id="OlpMwRyN-Im674d7ufbM-7" value="&lt;font style=&quot;font-size: 14px;&quot;&gt;&lt;i&gt;AST&lt;/i&gt;&lt;/font&gt;" style="text;html=1;strokeColor=none;fillColor=none;align=center;verticalAlign=middle;whiteSpace=wrap;rounded=0;fontSize=12;" parent="1" vertex="1">
          <mxGeometry x="415" y="256" width="40" height="20" as="geometry" />
        </mxCell>
        <mxCell id="OlpMwRyN-Im674d7ufbM-10" value="" style="endArrow=classic;html=1;rounded=0;fontSize=18;exitX=0.5;exitY=1;exitDx=0;exitDy=0;" parent="1" edge="1">
          <mxGeometry width="50" height="50" relative="1" as="geometry">
            <mxPoint x="415" y="328.0000000000001" as="sourcePoint" />
            <mxPoint x="415" y="366" as="targetPoint" />
          </mxGeometry>
        </mxCell>
        <mxCell id="OlpMwRyN-Im674d7ufbM-11" value="&lt;font style=&quot;font-size: 14px;&quot;&gt;&lt;i&gt;PLAN&lt;/i&gt;&lt;/font&gt;" style="text;html=1;strokeColor=none;fillColor=none;align=center;verticalAlign=middle;whiteSpace=wrap;rounded=0;fontSize=12;" parent="1" vertex="1">
          <mxGeometry x="418" y="334" width="40" height="20" as="geometry" />
        </mxCell>
        <mxCell id="OlpMwRyN-Im674d7ufbM-13" value="&lt;font style=&quot;font-size: 18px;&quot;&gt;Excutor Engine&lt;/font&gt;" style="rounded=1;whiteSpace=wrap;html=1;" parent="1" vertex="1">
          <mxGeometry x="325" y="443" width="180" height="40" as="geometry" />
        </mxCell>
        <mxCell id="OlpMwRyN-Im674d7ufbM-14" value="" style="endArrow=classic;html=1;rounded=0;fontSize=18;exitX=0.5;exitY=1;exitDx=0;exitDy=0;" parent="1" edge="1">
          <mxGeometry width="50" height="50" relative="1" as="geometry">
            <mxPoint x="415" y="405.0000000000001" as="sourcePoint" />
            <mxPoint x="415" y="443" as="targetPoint" />
          </mxGeometry>
        </mxCell>
        <mxCell id="OlpMwRyN-Im674d7ufbM-15" value="&lt;font style=&quot;font-size: 14px;&quot;&gt;&lt;i&gt;PLAN&lt;/i&gt;&lt;/font&gt;" style="text;html=1;strokeColor=none;fillColor=none;align=center;verticalAlign=middle;whiteSpace=wrap;rounded=0;fontSize=12;" parent="1" vertex="1">
          <mxGeometry x="418" y="411" width="40" height="20" as="geometry" />
        </mxCell>
        <mxCell id="OlpMwRyN-Im674d7ufbM-17" value="Query Process" style="text;html=1;strokeColor=none;fillColor=none;align=center;verticalAlign=middle;whiteSpace=wrap;rounded=0;dashed=1;fontSize=14;" parent="1" vertex="1">
          <mxGeometry x="350" y="490" width="130" height="30" as="geometry" />
        </mxCell>
        <mxCell id="OlpMwRyN-Im674d7ufbM-18" value="" style="rounded=1;whiteSpace=wrap;html=1;fontSize=14;dashed=1;" parent="1" vertex="1">
          <mxGeometry x="579" y="200" width="240" height="330" as="geometry" />
        </mxCell>
        <mxCell id="OlpMwRyN-Im674d7ufbM-19" value="&lt;font style=&quot;&quot;&gt;&lt;span style=&quot;font-size: 18px;&quot;&gt;Transaction Manager&lt;br&gt;&lt;/span&gt;&lt;font size=&quot;3&quot;&gt;(concurrency controller)&lt;br&gt;(recovery manager)&lt;/font&gt;&lt;br&gt;&lt;/font&gt;" style="rounded=1;whiteSpace=wrap;html=1;" parent="1" vertex="1">
          <mxGeometry x="599" y="238" width="200" height="90" as="geometry" />
        </mxCell>
        <mxCell id="OlpMwRyN-Im674d7ufbM-21" value="&lt;font style=&quot;font-size: 18px;&quot;&gt;Buffer/Cache Manager&lt;/font&gt;" style="rounded=1;whiteSpace=wrap;html=1;" parent="1" vertex="1">
          <mxGeometry x="599" y="353" width="200" height="52" as="geometry" />
        </mxCell>
        <mxCell id="OlpMwRyN-Im674d7ufbM-31" value="&lt;font style=&quot;font-size: 18px;&quot;&gt;File Manager&lt;/font&gt;" style="rounded=1;whiteSpace=wrap;html=1;" parent="1" vertex="1">
          <mxGeometry x="599" y="431" width="200" height="52" as="geometry" />
        </mxCell>
        <mxCell id="OlpMwRyN-Im674d7ufbM-32" value="Storage Engine" style="text;html=1;strokeColor=none;fillColor=none;align=center;verticalAlign=middle;whiteSpace=wrap;rounded=0;dashed=1;fontSize=14;" parent="1" vertex="1">
          <mxGeometry x="634" y="490" width="130" height="30" as="geometry" />
        </mxCell>
        <mxCell id="OlpMwRyN-Im674d7ufbM-33" value="&lt;font style=&quot;font-size: 18px;&quot;&gt;Statistics Data&lt;/font&gt;" style="rounded=1;whiteSpace=wrap;html=1;" parent="1" vertex="1">
          <mxGeometry x="254" y="585" width="150" height="50" as="geometry" />
        </mxCell>
        <mxCell id="OlpMwRyN-Im674d7ufbM-34" value="&lt;font style=&quot;font-size: 18px;&quot;&gt;Index&lt;/font&gt;" style="rounded=1;whiteSpace=wrap;html=1;" parent="1" vertex="1">
          <mxGeometry x="79" y="585" width="150" height="50" as="geometry" />
        </mxCell>
        <mxCell id="OlpMwRyN-Im674d7ufbM-35" value="&lt;font style=&quot;font-size: 18px;&quot;&gt;Row Data&lt;/font&gt;" style="rounded=1;whiteSpace=wrap;html=1;" parent="1" vertex="1">
          <mxGeometry x="429" y="585" width="150" height="50" as="geometry" />
        </mxCell>
        <mxCell id="OlpMwRyN-Im674d7ufbM-36" value="&lt;font style=&quot;font-size: 18px;&quot;&gt;Schema&lt;/font&gt;" style="rounded=1;whiteSpace=wrap;html=1;" parent="1" vertex="1">
          <mxGeometry x="602" y="585" width="150" height="50" as="geometry" />
        </mxCell>
        <mxCell id="OlpMwRyN-Im674d7ufbM-38" value="Disk" style="text;html=1;strokeColor=none;fillColor=none;align=center;verticalAlign=middle;whiteSpace=wrap;rounded=0;dashed=1;fontSize=14;" parent="1" vertex="1">
          <mxGeometry x="358" y="642" width="130" height="30" as="geometry" />
        </mxCell>
        <mxCell id="nMmt8pknLa50v1dqXy1G-1" value="" style="rounded=1;whiteSpace=wrap;html=1;fontSize=14;dashed=1;" vertex="1" parent="1">
          <mxGeometry x="10" y="200" width="240" height="330" as="geometry" />
        </mxCell>
        <mxCell id="nMmt8pknLa50v1dqXy1G-2" value="&lt;font style=&quot;&quot;&gt;&lt;span style=&quot;font-size: 18px;&quot;&gt;Connection Pool&lt;/span&gt;&lt;br&gt;&lt;/font&gt;" style="rounded=1;whiteSpace=wrap;html=1;" vertex="1" parent="1">
          <mxGeometry x="30" y="238" width="200" height="52" as="geometry" />
        </mxCell>
        <mxCell id="nMmt8pknLa50v1dqXy1G-3" value="&lt;font style=&quot;font-size: 18px;&quot;&gt;Access Control&lt;/font&gt;" style="rounded=1;whiteSpace=wrap;html=1;" vertex="1" parent="1">
          <mxGeometry x="30" y="334" width="200" height="52" as="geometry" />
        </mxCell>
        <mxCell id="nMmt8pknLa50v1dqXy1G-4" value="&lt;font style=&quot;font-size: 18px;&quot;&gt;Table Define Cache&lt;/font&gt;" style="rounded=1;whiteSpace=wrap;html=1;" vertex="1" parent="1">
          <mxGeometry x="30" y="431" width="200" height="52" as="geometry" />
        </mxCell>
        <mxCell id="nMmt8pknLa50v1dqXy1G-5" value="MySQL Server" style="text;html=1;strokeColor=none;fillColor=none;align=center;verticalAlign=middle;whiteSpace=wrap;rounded=0;dashed=1;fontSize=14;" vertex="1" parent="1">
          <mxGeometry x="65" y="490" width="130" height="30" as="geometry" />
        </mxCell>
      </root>
    </mxGraphModel>
  </diagram>
</mxfile>
